<mxfile host="Electron" agent="Mozilla/5.0 (Windows NT 10.0; Win64; x64) AppleWebKit/537.36 (KHTML, like Gecko) draw.io/24.7.17 Chrome/128.0.6613.36 Electron/32.0.1 Safari/537.36" border="50" scale="3" compressed="false" locked="false" version="24.7.17">
  <diagram name="Blank" id="YmL12bMKpDGza6XwsDPr">
    <mxGraphModel dx="2709" dy="2329" grid="0" gridSize="10" guides="1" tooltips="1" connect="1" arrows="1" fold="1" page="0" pageScale="1" pageWidth="827" pageHeight="1169" background="none" math="1" shadow="0">
      <root>
        <mxCell id="X5NqExCQtvZxIxQ7pmgY-0" />
        <mxCell id="1" parent="X5NqExCQtvZxIxQ7pmgY-0" />
        <mxCell id="NNyUj2IfrB_V-hfu5Uiv-16" value="" style="rounded=1;whiteSpace=wrap;html=1;" parent="1" vertex="1">
          <mxGeometry x="-193.5" y="-258" width="884" height="1005" as="geometry" />
        </mxCell>
        <mxCell id="NNyUj2IfrB_V-hfu5Uiv-1" value="&lt;div style=&quot;text-align: justify;&quot;&gt;&lt;br&gt;&lt;/div&gt;&lt;div style=&quot;text-align: justify;&quot;&gt;&lt;span style=&quot;background-color: initial;&quot;&gt;Inspect Tyre&lt;/span&gt;&lt;/div&gt;&lt;div style=&quot;text-align: justify;&quot;&gt;&lt;br&gt;&lt;/div&gt;" style="ellipse;whiteSpace=wrap;html=1;fontSize=24;verticalAlign=top;" parent="1" vertex="1">
          <mxGeometry x="121" y="215" width="263" height="95" as="geometry" />
        </mxCell>
        <mxCell id="NNyUj2IfrB_V-hfu5Uiv-2" value="Customer" style="shape=umlActor;verticalLabelPosition=bottom;verticalAlign=top;html=1;outlineConnect=0;fontSize=24;strokeWidth=5;" parent="1" vertex="1">
          <mxGeometry x="927" y="-247" width="105" height="149" as="geometry" />
        </mxCell>
        <mxCell id="NNyUj2IfrB_V-hfu5Uiv-4" value="&lt;h1 style=&quot;line-height: 160%;&quot;&gt;Owner&lt;br&gt;&lt;/h1&gt;" style="shape=umlActor;verticalLabelPosition=bottom;verticalAlign=top;html=1;outlineConnect=0;strokeWidth=5;" parent="1" vertex="1">
          <mxGeometry x="-520" y="-73" width="103" height="169" as="geometry" />
        </mxCell>
        <mxCell id="NNyUj2IfrB_V-hfu5Uiv-5" value="Worker" style="shape=umlActor;verticalLabelPosition=bottom;verticalAlign=top;html=1;outlineConnect=0;fontSize=24;fontFamily=Times New Roman;strokeWidth=5;" parent="1" vertex="1">
          <mxGeometry x="927" y="241" width="91" height="157" as="geometry" />
        </mxCell>
        <mxCell id="NNyUj2IfrB_V-hfu5Uiv-8" value="Assign the Worker" style="ellipse;whiteSpace=wrap;html=1;fontSize=24;" parent="1" vertex="1">
          <mxGeometry x="117" y="368" width="263" height="80" as="geometry" />
        </mxCell>
        <mxCell id="NNyUj2IfrB_V-hfu5Uiv-9" value="&#xa;Create Invoice&#xa;&#xa;" style="ellipse;whiteSpace=wrap;html=1;fontSize=20;verticalAlign=top;" parent="1" vertex="1">
          <mxGeometry x="123" y="-102" width="263" height="80" as="geometry" />
        </mxCell>
        <mxCell id="NNyUj2IfrB_V-hfu5Uiv-10" value="&#xa;Process Payment&#xa;&#xa;" style="ellipse;whiteSpace=wrap;html=1;fontSize=23;verticalAlign=top;" parent="1" vertex="1">
          <mxGeometry x="127.5" y="61" width="263" height="80" as="geometry" />
        </mxCell>
        <mxCell id="NNyUj2IfrB_V-hfu5Uiv-11" value="&lt;font style=&quot;font-size: 24px;&quot;&gt;&lt;br&gt;Customer Arrival:&lt;br&gt;&lt;/font&gt;" style="ellipse;whiteSpace=wrap;html=1;verticalAlign=top;horizontal=1;align=center;" parent="1" vertex="1">
          <mxGeometry x="117" y="-228" width="263" height="80" as="geometry" />
        </mxCell>
        <mxCell id="NNyUj2IfrB_V-hfu5Uiv-29" value="" style="endArrow=none;html=1;rounded=0;entryX=0;entryY=0.5;entryDx=0;entryDy=0;" parent="1" source="NNyUj2IfrB_V-hfu5Uiv-4" target="NNyUj2IfrB_V-hfu5Uiv-11" edge="1">
          <mxGeometry width="50" height="50" relative="1" as="geometry">
            <mxPoint x="-389" y="-28" as="sourcePoint" />
            <mxPoint x="-339" y="-78" as="targetPoint" />
          </mxGeometry>
        </mxCell>
        <mxCell id="NNyUj2IfrB_V-hfu5Uiv-30" value="" style="endArrow=none;html=1;rounded=0;entryX=1;entryY=0.5;entryDx=0;entryDy=0;" parent="1" source="NNyUj2IfrB_V-hfu5Uiv-2" target="NNyUj2IfrB_V-hfu5Uiv-11" edge="1">
          <mxGeometry width="50" height="50" relative="1" as="geometry">
            <mxPoint x="583" y="302" as="sourcePoint" />
            <mxPoint x="633" y="252" as="targetPoint" />
          </mxGeometry>
        </mxCell>
        <mxCell id="NNyUj2IfrB_V-hfu5Uiv-31" value="" style="endArrow=none;html=1;rounded=0;exitX=0;exitY=0.5;exitDx=0;exitDy=0;" parent="1" source="NNyUj2IfrB_V-hfu5Uiv-1" target="NNyUj2IfrB_V-hfu5Uiv-4" edge="1">
          <mxGeometry width="50" height="50" relative="1" as="geometry">
            <mxPoint x="105" y="142" as="sourcePoint" />
            <mxPoint x="-394" y="13" as="targetPoint" />
          </mxGeometry>
        </mxCell>
        <mxCell id="NNyUj2IfrB_V-hfu5Uiv-32" value="" style="endArrow=none;html=1;rounded=0;entryX=1;entryY=0.5;entryDx=0;entryDy=0;" parent="1" source="NNyUj2IfrB_V-hfu5Uiv-5" target="NNyUj2IfrB_V-hfu5Uiv-1" edge="1">
          <mxGeometry width="50" height="50" relative="1" as="geometry">
            <mxPoint x="864" y="336" as="sourcePoint" />
            <mxPoint x="633" y="252" as="targetPoint" />
          </mxGeometry>
        </mxCell>
        <mxCell id="NNyUj2IfrB_V-hfu5Uiv-33" value="" style="endArrow=none;html=1;rounded=0;entryX=0.052;entryY=0.331;entryDx=0;entryDy=0;entryPerimeter=0;" parent="1" source="NNyUj2IfrB_V-hfu5Uiv-4" target="NNyUj2IfrB_V-hfu5Uiv-8" edge="1">
          <mxGeometry width="50" height="50" relative="1" as="geometry">
            <mxPoint x="-378" y="58" as="sourcePoint" />
            <mxPoint x="633" y="252" as="targetPoint" />
          </mxGeometry>
        </mxCell>
        <mxCell id="NNyUj2IfrB_V-hfu5Uiv-34" value="" style="endArrow=none;html=1;rounded=0;exitX=1;exitY=0.5;exitDx=0;exitDy=0;" parent="1" source="NNyUj2IfrB_V-hfu5Uiv-8" target="NNyUj2IfrB_V-hfu5Uiv-5" edge="1">
          <mxGeometry width="50" height="50" relative="1" as="geometry">
            <mxPoint x="583" y="302" as="sourcePoint" />
            <mxPoint x="856" y="375" as="targetPoint" />
          </mxGeometry>
        </mxCell>
        <mxCell id="NNyUj2IfrB_V-hfu5Uiv-35" value="" style="endArrow=none;html=1;rounded=0;entryX=0;entryY=0.5;entryDx=0;entryDy=0;" parent="1" source="NNyUj2IfrB_V-hfu5Uiv-4" target="NNyUj2IfrB_V-hfu5Uiv-9" edge="1">
          <mxGeometry width="50" height="50" relative="1" as="geometry">
            <mxPoint x="-390" y="124" as="sourcePoint" />
            <mxPoint x="633" y="252" as="targetPoint" />
          </mxGeometry>
        </mxCell>
        <mxCell id="NNyUj2IfrB_V-hfu5Uiv-36" value="" style="endArrow=none;html=1;rounded=0;entryX=0;entryY=0.5;entryDx=0;entryDy=0;" parent="1" source="NNyUj2IfrB_V-hfu5Uiv-4" target="NNyUj2IfrB_V-hfu5Uiv-10" edge="1">
          <mxGeometry width="50" height="50" relative="1" as="geometry">
            <mxPoint x="583" y="361" as="sourcePoint" />
            <mxPoint x="633" y="311" as="targetPoint" />
          </mxGeometry>
        </mxCell>
        <mxCell id="NNyUj2IfrB_V-hfu5Uiv-37" value="" style="endArrow=none;html=1;rounded=0;exitX=1;exitY=0.5;exitDx=0;exitDy=0;" parent="1" source="NNyUj2IfrB_V-hfu5Uiv-10" target="NNyUj2IfrB_V-hfu5Uiv-2" edge="1">
          <mxGeometry width="50" height="50" relative="1" as="geometry">
            <mxPoint x="583" y="361" as="sourcePoint" />
            <mxPoint x="633" y="311" as="targetPoint" />
          </mxGeometry>
        </mxCell>
        <mxCell id="NNyUj2IfrB_V-hfu5Uiv-38" value="" style="endArrow=none;html=1;rounded=0;entryX=1;entryY=0.5;entryDx=0;entryDy=0;" parent="1" source="NNyUj2IfrB_V-hfu5Uiv-2" target="NNyUj2IfrB_V-hfu5Uiv-9" edge="1">
          <mxGeometry width="50" height="50" relative="1" as="geometry">
            <mxPoint x="583" y="361" as="sourcePoint" />
            <mxPoint x="633" y="311" as="targetPoint" />
          </mxGeometry>
        </mxCell>
        <mxCell id="HwGcCUh8PEyb6uIsM-ig-1" value="Use Case Diagram for the currunt System" style="text;strokeColor=none;fillColor=none;html=1;align=center;verticalAlign=middle;whiteSpace=wrap;rounded=0;fontSize=39;" parent="1" vertex="1">
          <mxGeometry x="6.25" y="-383" width="484.5" height="83" as="geometry" />
        </mxCell>
        <mxCell id="HwGcCUh8PEyb6uIsM-ig-5" value="Record the service details" style="ellipse;whiteSpace=wrap;html=1;fontSize=24;" parent="1" vertex="1">
          <mxGeometry x="113" y="638" width="263" height="80" as="geometry" />
        </mxCell>
        <mxCell id="HwGcCUh8PEyb6uIsM-ig-7" value="" style="endArrow=none;html=1;rounded=0;fontSize=12;startSize=8;endSize=8;curved=1;exitX=1;exitY=1;exitDx=0;exitDy=0;exitPerimeter=0;entryX=0;entryY=0.5;entryDx=0;entryDy=0;" parent="1" source="NNyUj2IfrB_V-hfu5Uiv-4" target="HwGcCUh8PEyb6uIsM-ig-5" edge="1">
          <mxGeometry width="50" height="50" relative="1" as="geometry">
            <mxPoint x="319" y="390" as="sourcePoint" />
            <mxPoint x="369" y="340" as="targetPoint" />
          </mxGeometry>
        </mxCell>
        <mxCell id="BASVU8sK8GHN45CdobEa-1" value="" style="rounded=1;whiteSpace=wrap;html=1;" parent="1" vertex="1">
          <mxGeometry x="1701" y="-717" width="990.5" height="1788" as="geometry" />
        </mxCell>
        <mxCell id="BASVU8sK8GHN45CdobEa-2" value="&lt;div style=&quot;text-align: justify;&quot;&gt;Repair and update&lt;/div&gt;" style="ellipse;whiteSpace=wrap;html=1;fontSize=24;verticalAlign=middle;" parent="1" vertex="1">
          <mxGeometry x="2021" y="429" width="263" height="95" as="geometry" />
        </mxCell>
        <mxCell id="BASVU8sK8GHN45CdobEa-3" value="Customer" style="shape=umlActor;verticalLabelPosition=bottom;verticalAlign=top;html=1;outlineConnect=0;fontSize=24;strokeWidth=5;" parent="1" vertex="1">
          <mxGeometry x="2805" y="-265" width="105" height="149" as="geometry" />
        </mxCell>
        <mxCell id="BASVU8sK8GHN45CdobEa-4" value="&lt;h1 style=&quot;line-height: 160%;&quot;&gt;Owner&lt;br&gt;&lt;/h1&gt;" style="shape=umlActor;verticalLabelPosition=bottom;verticalAlign=top;html=1;outlineConnect=0;strokeWidth=5;" parent="1" vertex="1">
          <mxGeometry x="1358" y="-91" width="103" height="169" as="geometry" />
        </mxCell>
        <mxCell id="BASVU8sK8GHN45CdobEa-5" value="Worker" style="shape=umlActor;verticalLabelPosition=bottom;verticalAlign=top;html=1;outlineConnect=0;fontSize=24;fontFamily=Times New Roman;strokeWidth=5;" parent="1" vertex="1">
          <mxGeometry x="2897" y="181" width="91" height="157" as="geometry" />
        </mxCell>
        <mxCell id="BASVU8sK8GHN45CdobEa-6" value="Assign the Worker" style="ellipse;whiteSpace=wrap;html=1;fontSize=24;" parent="1" vertex="1">
          <mxGeometry x="2027" y="270" width="263" height="80" as="geometry" />
        </mxCell>
        <mxCell id="BASVU8sK8GHN45CdobEa-7" value="&#xa;Create Invoice&#xa;&#xa;" style="ellipse;whiteSpace=wrap;html=1;fontSize=20;verticalAlign=top;" parent="1" vertex="1">
          <mxGeometry x="2049" y="-210" width="263" height="80" as="geometry" />
        </mxCell>
        <mxCell id="BASVU8sK8GHN45CdobEa-8" value="&#xa;Process Payment&#xa;&#xa;" style="ellipse;whiteSpace=wrap;html=1;fontSize=23;verticalAlign=top;" parent="1" vertex="1">
          <mxGeometry x="2051" y="-91" width="263" height="80" as="geometry" />
        </mxCell>
        <mxCell id="BASVU8sK8GHN45CdobEa-9" value="&lt;font style=&quot;font-size: 24px;&quot;&gt;Online Appointment Booking&lt;br&gt;&lt;/font&gt;" style="ellipse;whiteSpace=wrap;html=1;verticalAlign=middle;horizontal=1;align=center;" parent="1" vertex="1">
          <mxGeometry x="2016" y="-541" width="263" height="80" as="geometry" />
        </mxCell>
        <mxCell id="BASVU8sK8GHN45CdobEa-11" value="" style="endArrow=none;html=1;rounded=0;entryX=1;entryY=0.5;entryDx=0;entryDy=0;" parent="1" source="BASVU8sK8GHN45CdobEa-3" target="BASVU8sK8GHN45CdobEa-9" edge="1">
          <mxGeometry width="50" height="50" relative="1" as="geometry">
            <mxPoint x="2461" y="284" as="sourcePoint" />
            <mxPoint x="2511" y="234" as="targetPoint" />
          </mxGeometry>
        </mxCell>
        <mxCell id="BASVU8sK8GHN45CdobEa-12" value="" style="endArrow=none;html=1;rounded=0;exitX=0;exitY=0.5;exitDx=0;exitDy=0;" parent="1" source="BASVU8sK8GHN45CdobEa-2" target="BASVU8sK8GHN45CdobEa-4" edge="1">
          <mxGeometry width="50" height="50" relative="1" as="geometry">
            <mxPoint x="1983" y="124" as="sourcePoint" />
            <mxPoint x="1484" y="-5" as="targetPoint" />
          </mxGeometry>
        </mxCell>
        <mxCell id="BASVU8sK8GHN45CdobEa-13" value="" style="endArrow=none;html=1;rounded=0;entryX=1;entryY=0.5;entryDx=0;entryDy=0;" parent="1" source="BASVU8sK8GHN45CdobEa-5" target="BASVU8sK8GHN45CdobEa-2" edge="1">
          <mxGeometry width="50" height="50" relative="1" as="geometry">
            <mxPoint x="2742" y="318" as="sourcePoint" />
            <mxPoint x="2511" y="234" as="targetPoint" />
          </mxGeometry>
        </mxCell>
        <mxCell id="BASVU8sK8GHN45CdobEa-14" value="" style="endArrow=none;html=1;rounded=0;entryX=0.052;entryY=0.331;entryDx=0;entryDy=0;entryPerimeter=0;" parent="1" source="BASVU8sK8GHN45CdobEa-4" target="BASVU8sK8GHN45CdobEa-6" edge="1">
          <mxGeometry width="50" height="50" relative="1" as="geometry">
            <mxPoint x="1500" y="40" as="sourcePoint" />
            <mxPoint x="2511" y="234" as="targetPoint" />
          </mxGeometry>
        </mxCell>
        <mxCell id="BASVU8sK8GHN45CdobEa-15" value="" style="endArrow=none;html=1;rounded=0;exitX=1;exitY=0.5;exitDx=0;exitDy=0;" parent="1" source="BASVU8sK8GHN45CdobEa-6" target="BASVU8sK8GHN45CdobEa-5" edge="1">
          <mxGeometry width="50" height="50" relative="1" as="geometry">
            <mxPoint x="2461" y="284" as="sourcePoint" />
            <mxPoint x="2734" y="357" as="targetPoint" />
          </mxGeometry>
        </mxCell>
        <mxCell id="BASVU8sK8GHN45CdobEa-16" value="" style="endArrow=none;html=1;rounded=0;entryX=0;entryY=0.5;entryDx=0;entryDy=0;" parent="1" source="BASVU8sK8GHN45CdobEa-4" target="BASVU8sK8GHN45CdobEa-7" edge="1">
          <mxGeometry width="50" height="50" relative="1" as="geometry">
            <mxPoint x="1488" y="106" as="sourcePoint" />
            <mxPoint x="2511" y="234" as="targetPoint" />
          </mxGeometry>
        </mxCell>
        <mxCell id="BASVU8sK8GHN45CdobEa-17" value="" style="endArrow=none;html=1;rounded=0;entryX=0;entryY=0.5;entryDx=0;entryDy=0;" parent="1" source="BASVU8sK8GHN45CdobEa-4" target="BASVU8sK8GHN45CdobEa-8" edge="1">
          <mxGeometry width="50" height="50" relative="1" as="geometry">
            <mxPoint x="2461" y="343" as="sourcePoint" />
            <mxPoint x="2511" y="293" as="targetPoint" />
          </mxGeometry>
        </mxCell>
        <mxCell id="BASVU8sK8GHN45CdobEa-18" value="" style="endArrow=none;html=1;rounded=0;exitX=1;exitY=0.5;exitDx=0;exitDy=0;" parent="1" source="BASVU8sK8GHN45CdobEa-8" target="BASVU8sK8GHN45CdobEa-3" edge="1">
          <mxGeometry width="50" height="50" relative="1" as="geometry">
            <mxPoint x="2461" y="343" as="sourcePoint" />
            <mxPoint x="2511" y="293" as="targetPoint" />
          </mxGeometry>
        </mxCell>
        <mxCell id="BASVU8sK8GHN45CdobEa-19" value="" style="endArrow=none;html=1;rounded=0;entryX=1;entryY=0.5;entryDx=0;entryDy=0;" parent="1" source="BASVU8sK8GHN45CdobEa-3" target="BASVU8sK8GHN45CdobEa-7" edge="1">
          <mxGeometry width="50" height="50" relative="1" as="geometry">
            <mxPoint x="2461" y="343" as="sourcePoint" />
            <mxPoint x="2511" y="293" as="targetPoint" />
          </mxGeometry>
        </mxCell>
        <mxCell id="BASVU8sK8GHN45CdobEa-20" value="Use Case Diagram for the&amp;nbsp;Proposed System" style="text;strokeColor=none;fillColor=none;html=1;align=center;verticalAlign=middle;whiteSpace=wrap;rounded=0;fontSize=39;" parent="1" vertex="1">
          <mxGeometry x="1890.25" y="-845" width="484.5" height="83" as="geometry" />
        </mxCell>
        <mxCell id="BASVU8sK8GHN45CdobEa-21" value="Record the service details" style="ellipse;whiteSpace=wrap;html=1;fontSize=24;" parent="1" vertex="1">
          <mxGeometry x="1986" y="801" width="263" height="80" as="geometry" />
        </mxCell>
        <mxCell id="BASVU8sK8GHN45CdobEa-22" value="" style="endArrow=none;html=1;rounded=0;fontSize=12;startSize=8;endSize=8;curved=1;exitX=1;exitY=1;exitDx=0;exitDy=0;exitPerimeter=0;" parent="1" target="BASVU8sK8GHN45CdobEa-21" edge="1">
          <mxGeometry width="50" height="50" relative="1" as="geometry">
            <mxPoint x="1467" y="48.99999999999977" as="sourcePoint" />
            <mxPoint x="2001.0000000000023" y="524" as="targetPoint" />
          </mxGeometry>
        </mxCell>
        <mxCell id="BASVU8sK8GHN45CdobEa-23" value="&#xa;Service Performed&#xa;&#xa;" style="ellipse;whiteSpace=wrap;html=1;fontSize=24;verticalAlign=top;" parent="1" vertex="1">
          <mxGeometry x="121" y="496" width="263" height="80" as="geometry" />
        </mxCell>
        <mxCell id="BASVU8sK8GHN45CdobEa-24" value="" style="endArrow=none;html=1;rounded=0;exitX=1;exitY=0.5;exitDx=0;exitDy=0;" parent="1" source="BASVU8sK8GHN45CdobEa-23" edge="1">
          <mxGeometry width="50" height="50" relative="1" as="geometry">
            <mxPoint x="590" y="569" as="sourcePoint" />
            <mxPoint x="925" y="344" as="targetPoint" />
          </mxGeometry>
        </mxCell>
        <mxCell id="BASVU8sK8GHN45CdobEa-25" value="Work Distribution" style="ellipse;whiteSpace=wrap;html=1;fontSize=24;" parent="1" vertex="1">
          <mxGeometry x="1995" y="960" width="263" height="80" as="geometry" />
        </mxCell>
        <mxCell id="BASVU8sK8GHN45CdobEa-26" value="Feedbacks" style="ellipse;whiteSpace=wrap;html=1;fontSize=23;verticalAlign=middle;" parent="1" vertex="1">
          <mxGeometry x="2062" y="106" width="263" height="80" as="geometry" />
        </mxCell>
        <mxCell id="BASVU8sK8GHN45CdobEa-27" value="" style="endArrow=none;html=1;rounded=0;exitX=1;exitY=0.5;exitDx=0;exitDy=0;" parent="1" source="BASVU8sK8GHN45CdobEa-26" edge="1">
          <mxGeometry width="50" height="50" relative="1" as="geometry">
            <mxPoint x="2338" y="256" as="sourcePoint" />
            <mxPoint x="2802" y="-153" as="targetPoint" />
          </mxGeometry>
        </mxCell>
        <mxCell id="z4Wlg-TD6rMUuMXjeBsc-1" value="Registration" style="ellipse;whiteSpace=wrap;html=1;verticalAlign=middle;horizontal=1;align=center;fontSize=27;" parent="1" vertex="1">
          <mxGeometry x="2016" y="-665" width="263" height="80" as="geometry" />
        </mxCell>
        <mxCell id="z4Wlg-TD6rMUuMXjeBsc-2" value="" style="endArrow=none;html=1;rounded=0;entryX=1;entryY=0.5;entryDx=0;entryDy=0;" parent="1" source="BASVU8sK8GHN45CdobEa-3" target="z4Wlg-TD6rMUuMXjeBsc-1" edge="1">
          <mxGeometry width="50" height="50" relative="1" as="geometry">
            <mxPoint x="2025" y="-112" as="sourcePoint" />
            <mxPoint x="2075" y="-162" as="targetPoint" />
          </mxGeometry>
        </mxCell>
        <mxCell id="z4Wlg-TD6rMUuMXjeBsc-3" value="" style="endArrow=none;html=1;rounded=0;entryX=0;entryY=0.5;entryDx=0;entryDy=0;" parent="1" source="BASVU8sK8GHN45CdobEa-4" target="BASVU8sK8GHN45CdobEa-25" edge="1">
          <mxGeometry width="50" height="50" relative="1" as="geometry">
            <mxPoint x="2025" y="499" as="sourcePoint" />
            <mxPoint x="2075" y="449" as="targetPoint" />
          </mxGeometry>
        </mxCell>
        <mxCell id="z4Wlg-TD6rMUuMXjeBsc-4" value="" style="endArrow=none;html=1;rounded=0;exitX=1;exitY=0.5;exitDx=0;exitDy=0;" parent="1" source="BASVU8sK8GHN45CdobEa-25" target="BASVU8sK8GHN45CdobEa-5" edge="1">
          <mxGeometry width="50" height="50" relative="1" as="geometry">
            <mxPoint x="1469" y="88" as="sourcePoint" />
            <mxPoint x="2005" y="1010" as="targetPoint" />
          </mxGeometry>
        </mxCell>
        <mxCell id="z4Wlg-TD6rMUuMXjeBsc-6" value="check appontment and confirm" style="ellipse;whiteSpace=wrap;html=1;fontSize=23;" parent="1" vertex="1">
          <mxGeometry x="2004" y="-417" width="291" height="140" as="geometry" />
        </mxCell>
        <mxCell id="z4Wlg-TD6rMUuMXjeBsc-7" value="" style="endArrow=none;html=1;rounded=0;entryX=0;entryY=0.5;entryDx=0;entryDy=0;" parent="1" source="BASVU8sK8GHN45CdobEa-4" target="z4Wlg-TD6rMUuMXjeBsc-6" edge="1">
          <mxGeometry width="50" height="50" relative="1" as="geometry">
            <mxPoint x="2025" y="-176" as="sourcePoint" />
            <mxPoint x="2075" y="-226" as="targetPoint" />
          </mxGeometry>
        </mxCell>
        <mxCell id="z4Wlg-TD6rMUuMXjeBsc-8" value="order cancelled" style="ellipse;whiteSpace=wrap;html=1;fontSize=24;" parent="1" vertex="1">
          <mxGeometry x="2386" y="-290" width="216" height="80" as="geometry" />
        </mxCell>
        <mxCell id="z4Wlg-TD6rMUuMXjeBsc-9" value="&lt;font style=&quot;font-size: 16px;&quot;&gt;&amp;lt;&amp;lt;extend&amp;gt;&amp;gt;&lt;/font&gt;" style="html=1;verticalAlign=bottom;endArrow=open;dashed=1;endSize=8;curved=0;rounded=0;entryX=1;entryY=0.5;entryDx=0;entryDy=0;" parent="1" source="z4Wlg-TD6rMUuMXjeBsc-8" target="z4Wlg-TD6rMUuMXjeBsc-6" edge="1">
          <mxGeometry relative="1" as="geometry">
            <mxPoint x="2090" y="-201" as="sourcePoint" />
            <mxPoint x="2010" y="-201" as="targetPoint" />
          </mxGeometry>
        </mxCell>
      </root>
    </mxGraphModel>
  </diagram>
</mxfile>
